{"title":"The Tomorrow People US S01E09 HDTV x264 AAC E-Subs [GWC].mp4","uid":9334499,"size":152463721,"categoryP":"video","categoryS":"tv_shows","magnet":"?xt=urn:btih:6adc9b880dfc9b593179bc6b13e0288e6859c2df&amp;dn=The+Tomorrow+People+US+S01E09+HDTV+x264+AAC+E-Subs+%5BGWC%5D.mp4&amp;tr=udp%3A%2F%2Ftracker.openbittorrent.com%3A80&amp;tr=udp%3A%2F%2Fopen.demonii.com%3A1337&amp;tr=udp%3A%2F%2Ftracker.coppersurfer.tk%3A6969&amp;tr=udp%3A%2F%2Fexodus.desync.com%3A6969","seeders":0,"leechers":0,"uploader":"canc232","files":1,"time":1386830216,"description":"The Tomorrow People US S01E09 HDTV x264 AAC E-Subs [GWC]\n\n\nSCREENS :\n &lt;a href=&quot;\nhttp://s20.postimg.org/sxircnmd9/The_Tomorrow_People_US_S01_E09_HDTV_10_45_21.jpg&quot; rel=&quot;nofollow&quot; target=&quot;_NEW&quot;&gt;\nhttp://s20.postimg.org/sxircnmd9/The_Tomorrow_People_US_S01_E09_HDTV_10_45_21.jpg&lt;/a&gt; &lt;a href=&quot;\nhttp://s20.postimg.org/ioqa6tybh/The_Tomorrow_People_US_S01_E09_HDTV_10_57_55.jpg&quot; rel=&quot;nofollow&quot; target=&quot;_NEW&quot;&gt;\nhttp://s20.postimg.org/ioqa6tybh/The_Tomorrow_People_US_S01_E09_HDTV_10_57_55.jpg&lt;/a&gt; &lt;a href=&quot;\nhttp://s20.postimg.org/lwurjvkl9/The_Tomorrow_People_US_S01_E09_HDTV_10_58_07.jpg&quot; rel=&quot;nofollow&quot; target=&quot;_NEW&quot;&gt;\nhttp://s20.postimg.org/lwurjvkl9/The_Tomorrow_People_US_S01_E09_HDTV_10_58_07.jpg&lt;/a&gt;\n\n\n\nMEDIA INFO :\n\nGeneral \nFormat : MPEG-4 \nFormat profile : Base Media \nFile size : 145 MiB \nDuration : 42mn 26s \nOverall bit rate mode : Variable \nOverall bit rate : 479 Kbps \n\nVideo \nFormat : AVC\nFormat profile : &lt;a class=&quot;__cf_email__&quot; href=&quot;/cdn-cgi/l/email-protection&quot; data-cfemail=&quot;cd85a4aaa58d81fee3fd&quot;&gt;[email&amp;#160;protected]&lt;/a&gt;&lt;script data-cfhash='f9e31' type=&quot;text/javascript&quot;&gt;\n/* &lt;![CDATA[ */!function(){try{var t=&quot;currentScript&quot;in document?document.currentScript:function(){for(var t=document.getElementsByTagName(&quot;script&quot;),e=t.length;e--;)if(t[e].getAttribute(&quot;data-cfhash&quot;))return t[e]}();if(t&amp;&amp;t.previousSibling){var e,r,n,i,c=t.previousSibling,a=c.getAttribute(&quot;data-cfemail&quot;);if(a){for(e=&quot;&quot;,r=parseInt(a.substr(0,2),16),n=2;a.length-n;n+=2)i=parseInt(a.substr(n,2),16)^r,e+=String.fromCharCode(i);e=document.createTextNode(e),c.parentNode.replaceChild(e,c)}t.parentNode.removeChild(t);}}catch(u){}}()/* ]]&gt; */&lt;/script&gt; \nFormat settings, CABAC : Yes \nFormat settings, ReFrames : 5 frames\nDuration : 42mn 26s \nBit rate : 415 Kbps\nWidth : 720 pixels \nHeight : 406 pixels \nDisplay aspect ratio : 16:9 \nFrame rate mode : Variable \nFrame rate : 23.976 fps \nStream size : 126 MiB (87%) \nTitle : The Tomorrow People US S01E09 HDTV x264 AAC E-Subs [GWC] \nWriting library : x264 core\nLanguage : English\n\nAudio\nFormat : AAC\nFormat profile : HE-AAC / LC\nDuration : 42mn 26s \nBit rate mode : Variable\nChannel(s) : 2 channels\nSampling rate : 48.0 KHz / 24.0 KHz\nStream size : 18.2 MiB \nLanguage : English \n\nText\nFormat : Timed Text \nDuration : 42mn 5s \nBit rate mode : Variable\nStream size : 25.0 KiB (0%) \nTitle : English Subtitle by chamallow \nLanguage : English","torrent":{"xt":"urn:btih:6adc9b880dfc9b593179bc6b13e0288e6859c2df","amp;dn":"The+Tomorrow+People+US+S01E09+HDTV+x264+AAC+E-Subs+%5BGWC%5D.mp4","amp;tr":["udp%3A%2F%2Ftracker.openbittorrent.com%3A80","udp%3A%2F%2Fopen.demonii.com%3A1337","udp%3A%2F%2Ftracker.coppersurfer.tk%3A6969","udp%3A%2F%2Fexodus.desync.com%3A6969"],"infoHash":"6adc9b880dfc9b593179bc6b13e0288e6859c2df","infoHashBuffer":{"type":"Buffer","data":[106,220,155,136,13,252,155,89,49,121,188,107,19,224,40,142,104,89,194,223]},"announce":[],"urlList":[]}}